<svg width="24" height="22" viewBox="0 0 24 22" fill="none" xmlns="http://www.w3.org/2000/svg">
<g clip-path="url(#clip0_255_9242)">
<path d="M8.49999 6.71374L10.9926 9.46305C11.3418 9.84867 11.5406 10.3009 11.5917 10.7642C11.6428 10.3009 11.8415 9.84867 12.1907 9.46305L14.6862 6.71374C15.2341 6.10895 16.0745 5.75662 16.9659 5.75662H23.2543V0C18.9816 0 15.2625 2.32762 13.3575 5.75385H9.89394C7.9918 2.32762 4.27271 0 0 0V5.75385H6.2231C7.11171 5.75385 7.95206 6.10618 8.49999 6.71097V6.71374Z" fill="url(#paint0_linear_255_9242)"/>
<path d="M14.689 15.2891L12.1935 12.5398C11.8443 12.1542 11.6456 11.702 11.5945 11.2386C11.5434 11.702 11.3447 12.1542 10.9955 12.5398L8.50283 15.2891C7.9549 15.8939 7.11455 16.2462 6.22594 16.2462H0V22.0001C4.27271 22.0001 7.9918 19.6724 9.89678 16.2462H13.3604C15.2682 19.6752 18.9844 22.0001 23.2571 22.0001V16.2462H16.9687C16.0773 16.2462 15.2369 15.8939 14.689 15.2891Z" fill="url(#paint1_linear_255_9242)"/>
</g>
<defs>
<linearGradient id="paint0_linear_255_9242" x1="11.6272" y1="8.24491" x2="11.6272" y2="2.51928" gradientUnits="userSpaceOnUse">
<stop stop-color="#E9E6EC"/>
<stop offset="1" stop-color="#C6C1CE"/>
</linearGradient>
<linearGradient id="paint1_linear_255_9242" x1="12.1561" y1="13.7573" x2="12.1561" y2="19.5959" gradientUnits="userSpaceOnUse">
<stop stop-color="#E9E6EC"/>
<stop offset="1" stop-color="#C6C1CE"/>
</linearGradient>
<clipPath id="clip0_255_9242">
<rect width="23.2571" height="22" fill="white"/>
</clipPath>
</defs>
</svg>
