<svg width="42" height="42" viewBox="0 0 42 42" fill="none" xmlns="http://www.w3.org/2000/svg">
<circle cx="21" cy="21" r="20.5" stroke="#4C4C4C"/>
<g clip-path="url(#clip0_371_9681)">
<path d="M18.7245 17.8827L20.5374 19.8822C20.7913 20.1627 20.9359 20.4916 20.973 20.8285C21.0102 20.4916 21.1547 20.1627 21.4087 19.8822L23.2236 17.8827C23.6221 17.4429 24.2332 17.1866 24.8816 17.1866H29.4549V13C26.3475 13 23.6427 14.6928 22.2573 17.1846H19.7383C18.3549 14.6928 15.6501 13 12.5427 13V17.1846H17.0686C17.7149 17.1846 18.326 17.4409 18.7245 17.8807V17.8827Z" fill="url(#paint0_linear_371_9681)"/>
<path d="M23.2257 24.1194L21.4108 22.1199C21.1568 21.8394 21.0123 21.5105 20.9751 21.1736C20.9379 21.5105 20.7934 21.8394 20.5394 22.1199L18.7266 24.1194C18.3281 24.5592 17.7169 24.8155 17.0707 24.8155H12.5427V29.0001C15.6501 29.0001 18.3549 27.3073 19.7404 24.8155H22.2594C23.6469 27.3093 26.3496 29.0001 29.457 29.0001V24.8155H24.8836C24.2353 24.8155 23.6241 24.5592 23.2257 24.1194Z" fill="url(#paint1_linear_371_9681)"/>
</g>
<defs>
<linearGradient id="paint0_linear_371_9681" x1="20.9988" y1="18.9963" x2="20.9988" y2="14.8322" gradientUnits="userSpaceOnUse">
<stop stop-color="#E9E6EC"/>
<stop offset="1" stop-color="#C6C1CE"/>
</linearGradient>
<linearGradient id="paint1_linear_371_9681" x1="21.3835" y1="23.0053" x2="21.3835" y2="27.2516" gradientUnits="userSpaceOnUse">
<stop stop-color="#E9E6EC"/>
<stop offset="1" stop-color="#C6C1CE"/>
</linearGradient>
<clipPath id="clip0_371_9681">
<rect width="16.9143" height="16" fill="white" transform="translate(12.5427 13)"/>
</clipPath>
</defs>
</svg>
